<?xml version="1.0" standalone="no"?>
<!DOCTYPE svg PUBLIC "-//W3C//DTD SVG 1.1//EN" "http://www.w3.org/Graphics/SVG/1.1/DTD/svg11.dtd" >
<svg xmlns="http://www.w3.org/2000/svg">
<metadata>Generated by IcoMoon</metadata>
<defs>
<font id="icomoon" horiz-adv-x="1024">
<font-face units-per-em="1024" ascent="960" descent="-64" />
<missing-glyph horiz-adv-x="1024" />
<glyph unicode="&#x20;" horiz-adv-x="512" d="" />
<glyph unicode="&#xe600;" glyph-name="badge" horiz-adv-x="2017" d="M2016.759-4.99v905.98c0 31.241-24.298 59.010-59.010 59.010h-1884.854c-76.366 0-90.251-62.481-52.068-131.905 76.366-138.847 236.041-343.647 267.281-378.359-27.769-27.769-187.444-239.512-267.281-385.302-38.183-69.424-24.298-128.434 52.068-128.434h1888.325c31.241 0 55.539 27.769 55.539 59.010z" />
<glyph unicode="&#xe601;" glyph-name="caret-d" horiz-adv-x="1757" d="M41.514 724.757c-55.351 55.351-55.351 138.378 0 193.73s138.378 55.351 193.73 0l650.378-650.378 636.541 636.541c55.351 55.351 138.378 55.351 193.73 0s55.351-138.378 0-193.73l-733.405-733.405c-55.351-55.351-138.378-55.351-193.73 0l-747.243 747.243z" />
<glyph unicode="&#xe602;" glyph-name="caret-l" horiz-adv-x="640" d="M422.4 921.6c51.2 51.2 128 51.2 179.2 0s51.2-128 0-179.2l-294.4-294.4 281.6-281.6c51.2-51.2 51.2-128 0-179.2s-128-51.2-179.2 0l-371.2 358.4v12.8c-51.2 51.2-51.2 128 0 179.2l384 384z" />
<glyph unicode="&#xe603;" glyph-name="caret-r" horiz-adv-x="640" d="M38.4 742.4c-51.2 51.2-51.2 128 0 179.2s128 51.2 179.2 0l384-384c51.2-51.2 51.2-128 0-179.2v-12.8l-371.2-371.2c-51.2-51.2-128-51.2-179.2 0s-51.2 140.8 0 179.2l281.6 294.4-294.4 294.4z" />
<glyph unicode="&#xe604;" glyph-name="check" horiz-adv-x="1196" d="M43.116 291.705c-64.674 64.674-64.674 161.684 0 226.358s172.463 64.674 237.137 0l183.242-183.242 452.716 560.505c53.895 75.453 150.905 86.232 215.579 32.337s75.453-161.684 21.558-226.358l-549.726-689.853c-10.779-10.779-10.779-21.558-21.558-21.558-64.674-64.674-161.684-64.674-226.358 0l-312.589 301.811z" />
<glyph unicode="&#xe605;" glyph-name="clock" d="M512 960c137.552 0 267.463-53.493 359.164-152.836 91.701-91.701 152.836-221.612 152.836-359.164s-53.493-267.463-152.836-359.164c-91.701-91.701-221.612-152.836-359.164-152.836s-267.463 53.493-359.164 152.836c-91.701 91.701-152.836 221.612-152.836 359.164 0 145.194 53.493 267.463 152.836 359.164 91.701 99.343 213.97 152.836 359.164 152.836v0zM802.388 746.030c-76.418 76.418-183.403 122.269-298.030 122.269s-221.612-45.851-298.030-122.269c-76.418-76.418-122.269-183.403-122.269-298.030s45.851-221.612 122.269-298.030c76.418-76.418 183.403-122.269 298.030-122.269s221.612 45.851 298.030 122.269c76.418 76.418 122.269 183.403 122.269 298.030 7.642 114.627-45.851 221.612-122.269 298.030zM466.149 768.955c0 22.925 22.925 45.851 45.851 45.851s45.851-22.925 45.851-45.851v-313.313l168.119-152.836c15.284-15.284 22.925-45.851 0-61.134-15.284-15.284-45.851-22.925-61.134 0l-183.403 160.478c-7.642 7.642-15.284 15.284-15.284 30.567v336.239z" />
<glyph unicode="&#xe606;" glyph-name="comment" horiz-adv-x="1125" d="M566.303 960c310.303 0 566.303-224.97 566.303-496.485s-248.242-496.485-566.303-496.485c-93.091 0-186.182 23.273-263.758 54.303-31.030 15.515-256-108.606-279.273-93.091-62.061 46.545 77.576 248.242 38.788 318.061s-62.061 139.636-62.061 217.212c0 271.515 248.242 496.485 566.303 496.485z" />
<glyph unicode="&#xe607;" glyph-name="del" d="M37.463 747.707c-49.951 49.951-49.951 124.878 0 174.829s124.878 49.951 174.829 0l774.244-774.244c49.951-49.951 49.951-124.878 0-174.829s-124.878-49.951-174.829 0l-774.244 774.244zM212.293-26.537c-49.951-49.951-124.878-49.951-174.829 0s-49.951 124.878 0 174.829l774.244 774.244c49.951 49.951 124.878 49.951 174.829 0s49.951-124.878 0-174.829l-774.244-774.244z" />
<glyph unicode="&#xe608;" glyph-name="fb" horiz-adv-x="497" d="M0 620.686h103.006v103.006c0 42.414 0 115.124 36.355 157.538 36.355 48.473 84.828 78.769 163.598 78.769 133.302 0 187.834-18.178 187.834-18.178l-24.237-157.538c0 0-42.414 12.118-84.828 12.118s-78.769-12.118-78.769-54.533v-121.183h169.657l-12.118-151.479h-157.538v-533.207h-199.953v533.207h-103.006v151.479z" />
<glyph unicode="&#xe609;" glyph-name="glass" horiz-adv-x="1119" d="M447.462 960c124.773 0 236.639-51.63 318.387-133.378v0c81.748-81.748 133.378-193.613 133.378-318.387 0-86.050-25.815-163.496-64.538-232.336l266.756-228.034c25.815-21.513 30.118-64.538 8.605-94.655-21.513-25.815-64.538-30.118-94.655-8.605l-266.756 228.034c-77.445-68.84-185.008-111.866-296.874-111.866-124.773 0-236.639 51.63-318.387 133.378v0c-81.748 81.748-133.378 193.613-133.378 318.387s51.63 236.639 133.378 318.387c77.445 77.445 189.311 129.076 314.084 129.076v0zM671.193 736.269v0c-55.933 55.933-137.681 94.655-223.731 94.655s-167.798-34.42-223.731-94.655c-55.933-55.933-94.655-137.681-94.655-223.731s34.42-167.798 94.655-223.731v0c55.933-55.933 137.681-94.655 223.731-94.655s167.798 34.42 223.731 94.655c55.933 55.933 94.655 137.681 94.655 223.731s-38.723 167.798-94.655 223.731z" />
<glyph unicode="&#xe60a;" glyph-name="ig" d="M132.129 960h759.742c72.671 0 132.129-59.458 132.129-132.129v-759.742c0-72.671-59.458-132.129-132.129-132.129h-759.742c-72.671 0-132.129 59.458-132.129 132.129v759.742c0 72.671 59.458 132.129 132.129 132.129v0zM746.529 847.69v0c-26.426 0-46.245-19.819-46.245-46.245v-112.31c0-26.426 19.819-46.245 46.245-46.245h112.31c26.426 0 46.245 19.819 46.245 46.245v112.31c0 26.426-19.819 46.245-46.245 46.245h-112.31zM905.084 530.581v0h-92.49c6.606-26.426 13.213-59.458 13.213-85.884 0-171.768-145.342-310.503-317.11-310.503-178.374 0-317.11 138.735-317.11 310.503 0 26.426 6.606 52.852 13.213 85.884h-92.49v-429.419c0-19.819 19.819-39.639 39.639-39.639h713.497c19.819 0 39.639 19.819 39.639 39.639v429.419zM515.303 649.497v0c-118.916 0-211.406-85.884-211.406-198.194s92.49-198.194 204.8-198.194c112.31 0 204.8 85.884 204.8 198.194 6.606 112.31-85.884 198.194-198.194 198.194z" />
<glyph unicode="&#xe60b;" glyph-name="invalid" horiz-adv-x="138" d="M0 891.121c0 36.735 32.143 68.879 68.879 68.879s68.879-32.143 68.879-68.879v-537.256c0-36.735-32.143-68.879-68.879-68.879s-68.879 32.143-68.879 68.879v537.256zM0 23.247c0 36.735 32.143 68.879 68.879 68.879s68.879-32.143 68.879-68.879v-18.368c0-36.735-32.143-68.879-68.879-68.879s-68.879 32.143-68.879 68.879v18.368z" />
<glyph unicode="&#xe60c;" glyph-name="like" horiz-adv-x="1121" d="M560.302 844.075c19.321 28.981 38.642 48.302 57.962 57.962 57.962 38.642 115.925 57.962 193.208 57.962 86.943 0 164.226-28.981 222.189-86.943 57.962-48.302 96.604-125.585 96.604-202.868 0-125.585-67.623-251.17-173.887-376.755-96.604-115.925-222.189-222.189-347.774-338.113-28.981-19.321-67.623-19.321-86.943 0-135.245 115.925-260.83 222.189-347.774 338.113-106.264 125.585-173.887 251.17-173.887 376.755 0 77.283 38.642 154.566 96.604 202.868 57.962 57.962 135.245 86.943 212.528 86.943s135.245-19.321 193.208-57.962c19.321-9.66 38.642-28.981 57.962-57.962v0zM512-44.679v0 0z" />
<glyph unicode="&#xe60d;" glyph-name="link-out" horiz-adv-x="1216" d="M0 704v-713.143c0-27.429 9.143-54.857 54.857-54.857 182.857 0 859.429-18.286 987.429 9.143 9.143 109.714 0 265.143 0 393.143l-128-91.429v-192h-786.286v576c210.286 0 155.429-18.286 228.571 64 27.429 27.429 54.857 36.571 73.143 64-82.286 0-164.571 0-237.714 0s-192 18.286-192-54.857zM813.714 768h-54.857c-265.143 0-457.143-256-457.143-521.143 0 0 9.143 9.143 9.143 9.143 0-9.143 73.143 128 182.857 210.286 73.143 54.857 201.143 82.286 320 82.286v-201.143l310.857 228.571c73.143 54.857 128 54.857 45.714 118.857l-356.571 265.143v-192z" />
<glyph unicode="&#xe60e;" glyph-name="map" horiz-adv-x="1274" d="M898.896 955.367l278.009-64.869c27.801-4.633 50.968-23.167 64.869-46.335 18.534-23.167 27.801-46.335 27.801-74.136v-736.724c0-9.267 0-18.534-4.633-23.167 0 0 0-4.633 0-4.633-4.633-18.534-18.534-32.434-32.434-46.335s-37.068-18.534-60.235-18.534c-9.267 0-13.9 0-23.167 4.633 0 0-4.633 0-4.633 0l-278.009 64.869c-37.068 9.267-46.335 9.267-78.769 0l-278.009-64.869c0 0-4.633 0-4.633 0-23.167-4.633-106.57-4.633-129.738 0 0 0-4.633 0-4.633 0l-278.009 64.869c-27.801 4.633-50.968 23.167-64.869 46.335-18.534 23.167-27.801 46.335-27.801 74.136v732.090c0 9.267 0 18.534 4.633 23.167v0c4.633 23.167 18.534 37.068 32.434 50.968s32.434 23.167 55.602 23.167c9.267 0 13.9 0 23.167-4.633 0 0 4.633 0 4.633 0l278.009-64.869c32.434-9.267 50.968-9.267 83.403 0l278.009 64.869c0 0 4.633 0 4.633 0 27.801 4.633 111.204 4.633 134.371 0 0 0 0 0 0 0v0zM389.213 42.57v732.090c0 4.633 0 4.633-4.633 9.267 0 0-4.633 4.633-4.633 4.633l-278.009 64.869v-722.824c0-4.633 0-9.267 4.633-13.9s4.633-4.633 9.267-9.267l273.376-64.869zM495.783 770.027v0-727.457l273.376 64.869c4.633 0 4.633 4.633 9.267 9.267v0c0 4.633 0 9.267 0 9.267v727.457l-268.742-64.869c-4.633 0-4.633-4.633-9.267-9.267-4.633 0-4.633-4.633-4.633-9.267v0zM884.995 853.43v-722.824c0-4.633 0-9.267 0-9.267v0c4.633-4.633 4.633-4.633 9.267-9.267l273.376-64.869v722.824c0 4.633 0 9.267-4.633 13.9 0 0-4.633 4.633-4.633 4.633l-273.376 64.869z" />
<glyph unicode="&#xe60f;" glyph-name="slick-next" horiz-adv-x="574" d="M18.506 855.133c-24.675 24.675-24.675 61.687 0 86.361s61.687 24.675 86.361 0l450.313-450.313c24.675-24.675 24.675-61.687 0-86.361v0 0l-450.313-444.145c-24.675-24.675-61.687-24.675-86.361 0s-24.675 61.687 0 86.361l400.964 400.964-400.964 407.133z" />
<glyph unicode="&#xe610;" glyph-name="od" horiz-adv-x="592" d="M0 345.6c0-43.886 36.571-65.829 73.143-87.771 29.257-14.629 51.2-21.943 80.457-29.257 7.314 0 21.943-7.314 36.571-7.314-7.314-14.629-146.286-146.286-153.6-160.914-36.571-51.2-7.314-124.343 65.829-124.343 36.571 0 73.143 43.886 102.4 73.143 14.629 21.943 87.771 87.771 87.771 95.086 7.314-7.314 117.029-117.029 138.971-138.971 65.829-73.143 138.971-14.629 138.971 43.886 0 43.886-43.886 73.143-80.457 109.714-14.629 14.629-87.771 87.771-95.086 95.086 36.571 0 131.657 43.886 160.914 65.829 51.2 43.886 43.886 146.286-43.886 146.286-21.943 0-36.571-7.314-43.886-21.943-87.771-51.2-197.486-58.514-292.571-21.943-7.314 0-14.629 7.314-21.943 7.314-7.314 7.314-14.629 7.314-21.943 14.629-29.257 14.629-21.943 21.943-58.514 21.943s-73.143-36.571-73.143-80.457zM190.171 696.686c0 58.514 51.2 109.714 102.4 109.714 36.571 0 58.514 0 87.771-29.257 43.886-58.514 36.571-146.286-43.886-182.857-7.314 0-29.257-7.314-43.886-7.314-65.829 7.314-102.4 51.2-102.4 109.714v0zM36.571 704c0-43.886 7.314-80.457 21.943-117.029 21.943-43.886 51.2-80.457 87.771-109.714 109.714-73.143 248.686-58.514 336.457 29.257 36.571 36.571 58.514 80.457 73.143 124.343 36.571 168.229-87.771 329.143-256 329.143-95.086 0-168.229-43.886-219.429-109.714-29.257-36.571-43.886-95.086-43.886-146.286z" />
<glyph unicode="&#xe611;" glyph-name="pencil" d="M172.883 148.779c0-66.494 79.792-59.844 113.039-13.299 13.299 26.597 26.597 39.896 46.545 53.195l345.766 345.766c13.299 13.299 33.247 33.247 46.545 46.545 59.844 73.143 132.987 132.987 192.831 199.481 19.948 19.948 86.442 86.442 86.442 113.039s-19.948 39.896-39.896 46.545c-13.299 0-39.896-13.299-46.545-26.597-6.649-6.649-6.649-6.649-13.299-13.299-19.948-13.299-33.247-33.247-46.545-46.545-33.247-26.597-545.247-545.247-644.987-638.338-19.948-13.299-39.896-33.247-39.896-66.494zM252.675 68.987v-19.948c46.545-33.247 59.844 0 126.338 73.143l558.545 565.195c46.545 46.545 79.792 66.494 79.792 119.688 0 6.649-6.649 19.948-13.299 19.948-26.597 0-66.494-59.844-99.74-86.442-99.74-93.091-192.831-186.182-285.922-285.922l-285.922-285.922c-13.299-19.948-79.792-73.143-79.792-99.74zM891.013 953.351c-19.948 13.299-53.195 13.299-66.494 0l-704.831-704.831c-13.299-19.948-26.597-46.545 0-59.844 33.247-13.299 66.494 39.896 106.39 73.143 33.247 33.247 66.494 59.844 99.74 93.091 26.597 26.597 246.026 239.377 265.974 265.974 33.247 53.195 285.922 279.273 299.221 332.468zM0-50.701v-13.299c39.896 0 53.195 6.649 93.091 13.299l73.143 26.597c0 59.844-73.143 126.338-113.039 126.338-19.948-26.597-53.195-119.688-53.195-152.935z" />
<glyph unicode="&#xe612;" glyph-name="pin" horiz-adv-x="771" d="M387.57 960c106.072 0 203.984-44.876 273.339-114.231v0 0c69.355-69.355 110.151-167.267 110.151-273.339 0-163.187-142.789-350.853-257.020-505.88-28.558-36.717-53.036-73.434-77.514-106.072-20.398-28.558-57.116-32.637-85.673-16.319-4.080 4.080-12.239 8.159-16.319 16.319v0c-20.398 28.558-44.876 61.195-69.355 93.833-122.39 163.187-265.179 354.932-265.179 518.12 0 106.072 44.876 203.984 114.231 273.339v0 0c69.355 73.434 167.267 114.231 273.339 114.231v0zM571.155 760.096c-44.876 48.956-114.231 77.514-183.586 77.514-73.434 0-138.709-28.558-187.665-77.514s-77.514-114.231-77.514-187.665c0-126.47 130.55-297.817 240.701-444.685l24.478-28.558 28.558 40.797c106.072 138.709 232.542 310.056 232.542 432.446 0 73.434-28.558 138.709-77.514 187.665z" />
<glyph unicode="&#xe613;" glyph-name="pin-hover" horiz-adv-x="761" d="M380.425 960c105.832 0 200.223-42.905 268.872-111.553s111.553-163.039 111.553-268.872c0-163.039-145.877-357.542-266.011-514.86-28.603-40.045-57.207-77.229-80.089-108.693-14.302-20.022-40.045-22.883-60.067-11.441-2.86 2.86-8.581 5.721-11.441 11.441v0c-22.883 31.464-48.626 65.788-74.369 100.112-120.134 160.179-268.872 357.542-268.872 523.441 0 105.832 42.905 200.223 111.553 268.872v0 0 0c68.648 68.648 165.899 111.553 268.872 111.553z" />
<glyph unicode="&#xe614;" glyph-name="plus" d="M450.164 960h98.937c19.787 0 34.628-14.841 34.628-34.628v-954.744c0-19.787-14.841-34.628-34.628-34.628h-98.937c-19.787 0-34.628 14.841-34.628 34.628v954.744c0 19.787 19.787 34.628 34.628 34.628zM0 401.005v98.937c0 14.841 14.841 34.628 34.628 34.628h954.744c19.787 0 34.628-14.841 34.628-34.628v-98.937c0-19.787-14.841-34.628-34.628-34.628h-954.744c-19.787-4.947-34.628 14.841-34.628 34.628z" />
<glyph unicode="&#xe615;" glyph-name="quotes" horiz-adv-x="1238" d="M149.126 383.379c-14.913 14.913-14.913 34.796-14.913 54.68 0 119.301 119.301 338.019 213.748 457.32l4.971 29.825-19.883 29.825-29.825 4.971c-84.505-69.592-173.981-193.864-223.689-303.223-64.621-129.243-79.534-228.66-79.534-352.932 0-283.34 178.951-367.845 303.223-367.845 129.243 0 218.718 109.359 218.718 228.66 0 89.476-49.709 238.602-228.66 238.602-49.709 0-84.505-14.913-114.33-29.825l-29.825 9.942zM864.932 383.379c-14.913 14.913-14.913 34.796-14.913 54.68 0 119.301 119.301 338.019 213.748 457.32l4.971 29.825-19.883 24.854-29.825 9.942c-84.505-69.592-173.981-193.864-223.689-303.223-64.621-129.243-79.534-228.66-79.534-352.932 0-283.34 178.951-367.845 303.223-367.845 129.243 0 218.718 109.359 218.718 228.66 0 89.476-49.709 238.602-228.66 238.602-49.709 0-84.505-14.913-114.33-29.825l-29.825 9.942z" />
<glyph unicode="&#xe616;" glyph-name="sc" horiz-adv-x="2078" d="M1115.248-64c0 0 699.564 0 709.703 0 141.941 0 253.465 131.802 253.465 294.020s-111.525 294.020-253.465 294.020c-30.416 0-70.97-10.139-101.386-20.277-20.277 253.465-202.772 456.238-435.96 466.376h-20.277c-50.693 0-101.386-10.139-152.079-30.416-20.277-10.139-20.277-20.277-20.277-30.416v-922.614c-10.139-30.416 0-50.693 20.277-50.693v0zM1034.139 889.030c-20.277 0-30.416-10.139-30.416-30.416l-10.139-648.871 10.139-233.188c0-20.277 10.139-30.416 30.416-30.416s30.416 10.139 30.416 30.416v0l10.139 233.188-10.139 648.871c0 20.277-20.277 30.416-30.416 30.416v0zM942.891-64c10.139 0 30.416 10.139 30.416 30.416v0l10.139 243.327-10.139 598.178c0 20.277-10.139 30.416-30.416 30.416-10.139 0-30.416-10.139-30.416-30.416v-598.178l10.139-243.327c0-20.277 10.139-30.416 20.277-30.416v0zM892.198 209.743l-10.139 506.931c0 20.277-10.139 30.416-20.277 30.416s-20.277-10.139-20.277-30.416l-10.139-506.931 10.139-243.327c0-20.277 10.139-30.416 20.277-30.416s20.277 10.139 20.277 30.416v0l10.139 243.327zM770.535-64c10.139 0 20.277 10.139 20.277 30.416v0l20.277 243.327-20.277 517.069c0 20.277-10.139 30.416-20.277 30.416s-20.277-10.139-20.277-30.416l-10.139-517.069 10.139-243.327c0-20.277 10.139-30.416 20.277-30.416v0zM689.426-64c10.139 0 20.277 10.139 20.277 20.277v0l10.139 243.327-10.139 547.485c0 10.139-10.139 20.277-20.277 20.277-20.277 0-20.277-10.139-20.277-20.277l-20.277-537.347 10.139-243.327c10.139-20.277 10.139-30.416 30.416-30.416v0zM598.178 747.089c-10.139 0-20.277-10.139-20.277-20.277l-10.139-517.069 10.139-243.327c0-10.139 10.139-20.277 20.277-20.277s20.277 10.139 20.277 20.277v0l20.277 243.327-20.277 517.069c0 10.139-10.139 20.277-20.277 20.277v0zM517.069-64c10.139 0 20.277 10.139 20.277 20.277v0l20.277 253.465-20.277 476.515c0 10.139-10.139 20.277-20.277 20.277s-20.277-10.139-20.277-20.277l-10.139-476.515 10.139-253.465c0-10.139 10.139-20.277 20.277-20.277v0zM466.376 209.743l-20.277 385.267c0 10.139-10.139 20.277-20.277 20.277s-20.277-10.139-20.277-20.277l-10.139-385.267 20.277-253.465c0-10.139 10.139-20.277 20.277-20.277s20.277 10.139 20.277 20.277v0l10.139 253.465zM344.713-64c10.139 0 10.139 10.139 10.139 20.277v0l20.277 253.465-10.139 233.188c0 10.139-10.139 20.277-10.139 20.277-20.277 0-20.277-10.139-20.277-20.277l-20.277-233.188 20.277-253.465c0-10.139 0-20.277 10.139-20.277v0zM263.604-53.861c10.139 0 10.139 10.139 10.139 10.139v0l20.277 253.465-20.277 253.465c0 10.139-10.139 10.139-10.139 10.139-10.139 0-10.139-10.139-10.139-10.139l-20.277-253.465 20.277-253.465c0-10.139 0-10.139 10.139-10.139v0zM192.634 463.208c0 10.139 0 10.139-10.139 10.139s-10.139 0-10.139-10.139l-20.277-253.465 20.277-243.327c0-10.139 0-10.139 10.139-10.139s10.139 0 10.139 10.139l20.277 243.327-20.277 253.465zM20.277 67.802c10.139 0 10.139 0 0 0l30.416 141.941-20.277 131.802c0 10.139 0 10.139-10.139 10.139 0 0-10.139 0-10.139-10.139l-10.139-131.802 20.277-141.941c0 0 0 0 0 0v0zM30.416 77.941v0 0 0 0zM101.386-13.307c0 0 10.139 10.139 0 0l30.416 212.911-20.277 223.050c0 10.139 0 10.139-10.139 10.139 0 0-10.139 0-10.139-10.139l-20.277-212.911 30.416-223.050c-10.139 10.139-10.139 0 0 0z" />
<glyph unicode="&#xe617;" glyph-name="skype" horiz-adv-x="1028" d="M301.176 370.555c55.933 0 68.84-60.235 86.050-90.353 12.908-21.513 17.21-30.118 43.025-43.025 60.235-30.118 215.126-21.513 215.126 73.143 0 51.63-55.933 68.84-94.655 77.445-38.723 12.908-90.353 21.513-137.681 34.42-43.025 12.908-86.050 30.118-116.168 55.933-43.025 34.42-55.933 68.84-55.933 129.076 0 30.118 12.908 60.235 25.815 81.748 4.303 4.303 8.605 8.605 12.908 12.908 8.605 0 8.605 4.303 17.21 8.605 73.143 60.235 146.286 68.84 240.941 68.84 81.748 0 154.891-30.118 193.613-68.84 73.143-73.143 47.328-154.891-30.118-154.891s-51.63 120.471-180.706 120.471c-38.723 0-86.050 0-116.168-34.42-25.815-25.815-17.21-55.933 17.21-77.445 55.933-34.42 189.311-43.025 283.966-86.050 25.815-12.908 51.63-30.118 68.84-55.933 47.328-68.84 38.723-167.798-21.513-223.731-47.328-47.328-103.261-68.84-172.101-77.445s-154.891-4.303-215.126 21.513l-30.118 17.21c-21.513 12.908-25.815 12.908-43.025 34.42-21.513 21.513-38.723 38.723-51.63 73.143-21.513 51.63 4.303 103.261 60.235 103.261v0zM0 680.336c0-47.328 8.605-86.050 25.815-120.471 17.21-30.118 12.908-8.605 8.605-51.63-8.605-68.84-4.303-133.378 12.908-202.218 4.303-21.513 12.908-38.723 21.513-55.933s17.21-34.42 25.815-51.63c8.605-17.21 21.513-30.118 30.118-47.328l25.815-30.118c8.605-12.908 38.723-38.723 47.328-47.328l94.655-60.235c55.933-30.118 111.866-43.025 180.706-51.63 34.42-4.303 77.445 0 107.563 0 12.908 0 21.513 4.303 30.118 0 111.866-51.63 240.941-34.42 326.992 51.63 17.21 17.21 17.21 12.908 34.42 38.723 55.933 73.143 64.538 172.101 34.42 258.151-12.908 43.025-12.908 8.605-4.303 73.143 25.815 176.403-60.235 352.807-197.916 447.462-77.445 51.63-167.798 90.353-262.454 90.353-30.118 0-47.328 0-77.445-4.303-51.63 0-12.908 0-68.84 21.513-111.866 43.025-232.336 17.21-309.782-60.235-25.815-25.815-25.815-25.815-47.328-55.933-21.513-34.42-38.723-90.353-38.723-141.983z" />
<glyph unicode="&#xe618;" glyph-name="star" horiz-adv-x="1071" d="M599.579 912.842l94.316-296.421h316.632c33.684 0 60.632-26.947 60.632-60.632 0-20.211-13.474-40.421-26.947-53.895v0l-256-181.895 101.053-296.421c13.474-33.684-6.737-67.368-40.421-80.842-20.211-6.737-47.158 0-60.632 13.474l-249.263 175.158-256-181.895c-26.947-20.211-67.368-13.474-87.579 13.474-13.474 20.211-13.474 40.421-6.737 53.895v0l101.053 296.421-262.737 188.632c-26.947 20.211-33.684 60.632-13.474 87.579 13.474 20.211 33.684 26.947 53.895 26.947h309.895l94.316 296.421c13.474 33.684 47.158 53.895 80.842 47.158 20.211-6.737 40.421-26.947 47.158-47.158z" />
<glyph unicode="&#xe619;" glyph-name="string" horiz-adv-x="384" d="M21.113 960h341.333c10.557 0 21.113-10.557 21.113-21.113v-981.773c0-84.454-172.426 144.275-190.021 165.388-17.595-21.113-193.54-249.842-193.54-165.388v981.773c0 10.557 10.557 21.113 21.113 21.113z" />
<glyph unicode="&#xe61a;" glyph-name="tw" horiz-adv-x="1259" d="M1258.667 839.111c-49.778-21.333-99.556-35.556-149.333-42.667 56.889 35.556 92.444 85.333 113.778 142.222-49.778-28.444-106.667-49.778-163.556-64-42.667 56.889-113.778 85.333-184.889 85.333-142.222 0-256-113.778-256-256 0-21.333 0-42.667 7.111-56.889-220.444 7.111-412.444 106.667-540.444 263.111-21.333-35.556-35.556-78.222-35.556-128 0-92.444 42.667-170.667 113.778-213.333-42.667 0-85.333 14.222-113.778 35.556 0 0 0 0 0 0 0-128 92.444-227.556 206.222-256-21.333-14.222-42.667-14.222-64-14.222-14.222 0-35.556 0-49.778 7.111 35.556-99.556 128-177.778 241.778-177.778-85.333-71.111-199.111-113.778-320-113.778-21.333 0-42.667 0-64 7.111 113.778-71.111 248.889-113.778 398.222-113.778 476.444 0 732.444 391.111 732.444 732.444 0 14.222 0 21.333 0 35.556 49.778 28.444 92.444 78.222 128 128z" />
<glyph unicode="&#xe61b;" glyph-name="valid" horiz-adv-x="1233" d="M26.947 326.737c-40.421 40.421-40.421 101.053 0 141.474s107.789 40.421 148.211 0l282.947-282.947 599.579 734.316c33.684 40.421 101.053 47.158 141.474 13.474s47.158-101.053 13.474-141.474l-666.947-815.158c-6.737-6.737-6.737-13.474-13.474-13.474-40.421-40.421-101.053-40.421-141.474 0l-363.789 363.789z" />
<glyph unicode="&#xe61c;" glyph-name="view" horiz-adv-x="1531" d="M765.607 127.402c-105.271 0-200.972 57.421-258.393 133.981-153.121 220.112 9.57 507.215 258.393 507.215 66.991 0 162.692-28.71 200.972-76.561 9.57-9.57 19.14-9.57 19.14-19.14 19.14-19.14 47.85-66.991 66.991-95.701 38.28-76.561 38.28-181.832 0-258.393-28.71-76.561-86.131-124.411-153.121-162.692-38.28-9.57-86.131-28.71-133.981-28.71v0zM746.467-64c181.832 0 344.523 66.991 497.645 172.262 76.561 57.421 181.832 153.121 248.822 229.682 57.421 76.561 57.421 143.551 0 220.112-9.57 9.57-9.57 9.57-19.14 19.14-47.85 66.991-172.262 162.692-229.682 210.542-66.991 47.85-124.411 76.561-200.972 114.841-267.963 114.841-526.355 47.85-756.037-114.841-76.561-57.421-181.832-143.551-239.252-229.682-57.421-76.561-57.421-153.121 0-220.112l76.561-86.131c153.121-153.121 392.374-315.813 622.056-315.813zM574.206 452.785c0-181.832 200.972-239.252 306.243-162.692 9.57 0 9.57 9.57 9.57 9.57 47.85 38.28 66.991 86.131 66.991 153.121-19.14 0-28.71-28.71-86.131-28.71-105.271 0-143.551 133.981-66.991 191.402 9.57 9.57 19.14 9.57 19.14 19.14-9.57 0-38.28 9.57-66.991 9.57-95.701 0-181.832-95.701-181.832-191.402z" />
<glyph unicode="&#xe61d;" glyph-name="vk" horiz-adv-x="1779" d="M1779.2 896c-51.2 25.6-115.2 25.6-192 25.6-256 0-192 25.6-268.8-140.8-25.6-51.2-38.4-76.8-64-128-25.6-38.4-115.2-204.8-179.2-192-102.4 76.8 25.6 396.8-64 473.6-25.6 25.6-358.4 64-422.4-38.4 0 0 0 0 0 0s0 0 0 0c38.4-25.6 51.2-12.8 76.8-38.4 12.8-25.6 25.6-51.2 25.6-76.8 0-38.4 38.4-371.2-76.8-320-38.4 25.6-76.8 89.6-89.6 115.2-217.6 307.2-76.8 332.8-320 332.8-64 0-140.8 12.8-204.8-12.8-12.8-64 128-332.8 166.4-396.8 51.2-102.4 166.4-268.8 230.4-345.6 25.6-25.6 51.2-51.2 76.8-76.8 102.4-64 179.2-102.4 294.4-128 51.2-12.8 230.4-25.6 256 12.8 38.4 51.2-12.8 153.6 76.8 204.8 76.8 25.6 179.2-166.4 256-217.6 64-25.6 384-38.4 422.4 12.8 38.4 64-102.4 204.8-140.8 230.4-89.6 76.8-166.4 140.8-128 217.6 38.4 115.2 294.4 345.6 268.8 486.4z" />
<glyph unicode="&#xe61e;" glyph-name="slick-prev" horiz-adv-x="574" d="M468.819 941.494c24.675 24.675 61.687 24.675 86.361 0s24.675-61.687 0-86.361l-407.133-407.133 407.133-407.133c24.675-24.675 24.675-61.687 0-86.361s-61.687-24.675-86.361 0l-450.313 450.313c-24.675 24.675-24.675 61.687 0 86.361l450.313 450.313z" />
<glyph unicode="&#xe61f;" horiz-adv-x="917" d="M39.385 813.714c135.033 33.758 219.429 61.89 371.341 135.033 33.758 16.879 73.143 11.253 101.275-5.626 112.527-50.637 225.055-101.275 360.088-129.407 28.132-11.253 39.385-33.758 39.385-61.89 0-157.538-45.011-320.703-118.154-461.363s-180.044-264.44-303.824-343.209c-22.505-11.253-50.637-11.253-67.516 0v0c-129.407 84.396-230.681 202.549-298.198 337.582-73.143 140.659-118.154 303.824-123.78 466.989 0 28.132 16.879 50.637 39.385 61.89v0z" />
<glyph unicode="&#xe620;" horiz-adv-x="917" d="M258.813 448c-22.505 16.879-22.505 45.011-5.626 61.89s45.011 22.505 61.89 5.626l129.407-106.901 185.67 230.681c16.879 16.879 45.011 22.505 61.89 5.626s22.505-45.011 5.626-61.89l-213.802-270.066c-16.879-16.879-45.011-22.505-61.89-5.626l-163.165 140.659z" />
<glyph unicode="&#xe621;" horiz-adv-x="917" d="M258.813 476.132c-22.505 11.253-22.505 39.385-5.626 61.89 16.879 16.879 45.011 22.505 61.89 5.626l129.407-106.901 185.67 230.681c16.879 22.505 45.011 22.505 61.89 11.253 16.879-16.879 22.505-45.011 5.626-61.89l-213.802-275.692c-16.879-16.879-45.011-22.505-61.89-5.626l-163.165 140.659z" />
</font>
</defs>
</svg>
